<?xml version="1.0" encoding="UTF-8" standalone="no"?>
<svg
   viewBox="0 0 877.00122 877.00122"
   version="1.1"
   id="svg23"
   sodipodi:docname="js - Copy.svg"
   width="877.00122"
   height="877.00122"
   inkscape:version="1.2.1 (9c6d41e410, 2022-07-14)"
   xmlns:inkscape="http://www.inkscape.org/namespaces/inkscape"
   xmlns:sodipodi="http://sodipodi.sourceforge.net/DTD/sodipodi-0.dtd"
   xmlns="http://www.w3.org/2000/svg"
   xmlns:svg="http://www.w3.org/2000/svg">
  <defs
     id="defs27" />
  <sodipodi:namedview
     id="namedview25"
     pagecolor="#505050"
     bordercolor="#eeeeee"
     borderopacity="1"
     inkscape:showpageshadow="0"
     inkscape:pageopacity="0"
     inkscape:pagecheckerboard="0"
     inkscape:deskcolor="#505050"
     showgrid="false"
     inkscape:zoom="0.70634921"
     inkscape:cx="308.62921"
     inkscape:cy="429.67416"
     inkscape:window-width="1920"
     inkscape:window-height="1060"
     inkscape:window-x="-8"
     inkscape:window-y="-8"
     inkscape:window-maximized="1"
     inkscape:current-layer="svg23" />
  <rect
     width="877.00122"
     height="877.00122"
     fill="#f7df1e"
     id="rect19"
     x="0"
     y="0"
     style="stroke-width:1.39207" />
  <path
     d="m 670.20116,739.19116 c 12.69,20.72 29.2,35.95 58.4,35.95 24.53,0 40.2,-12.26 40.2,-29.2 0,-20.3 -16.1,-27.49 -43.1,-39.3 l -14.8,-6.35 c -42.72,-18.2 -71.1,-41 -71.1,-89.2 0,-44.4 33.83,-78.2 86.7,-78.2 37.64,0 64.7,13.1 84.2,47.4 l -46.1,29.6 c -10.15,-18.2 -21.1,-25.37 -38.1,-25.37 -17.34,0 -28.33,11 -28.33,25.37 0,17.76 11,24.95 36.4,35.95 l 14.8,6.34 c 50.3,21.57 78.7,43.56 78.7,93 0,53.3 -41.87,82.5 -98.1,82.5 -54.98,0 -90.5,-26.2 -107.88,-60.54 z m -209.13,5.13 c 9.3,16.5 17.76,30.45 38.1,30.45 19.45,0 31.72,-7.61 31.72,-37.2 v -201.3 h 59.2 v 202.1 c 0,61.3 -35.94,89.2 -88.4,89.2 -47.4,0 -74.85,-24.53 -88.81,-54.075 z"
     id="path21" />
  <rect
     style="fill:#000000;stroke-width:2.31434"
     id="rect239-2"
     width="287.12769"
     height="57.661236"
     x="-816.69348"
     y="-317.77087"
     transform="rotate(-135)" />
  <rect
     style="fill:#000000;stroke-width:2.31434"
     id="rect239-2-7"
     width="287.12769"
     height="57.661236"
     x="-432.50409"
     y="644.29901"
     transform="rotate(-45)" />
</svg>
